<svg xmlns="http://www.w3.org/2000/svg" width="1200" height="630" viewBox="0 0 1200 630">
  <rect width="1200" height="630" fill="#000000"/>
  
  <!-- Dotted world map -->
  <g opacity="0.12">
    <!-- Americas -->
    <circle cx="120" cy="160" r="4" fill="white"/><circle cx="140" cy="160" r="4" fill="white"/><circle cx="160" cy="160" r="4" fill="white"/><circle cx="180" cy="160" r="4" fill="white"/><circle cx="110" cy="180" r="4" fill="white"/><circle cx="130" cy="180" r="4" fill="white"/><circle cx="150" cy="180" r="4" fill="white"/><circle cx="170" cy="180" r="4" fill="white"/><circle cx="190" cy="180" r="4" fill="white"/><circle cx="100" cy="200" r="4" fill="white"/><circle cx="120" cy="200" r="4" fill="white"/><circle cx="140" cy="200" r="4" fill="white"/><circle cx="160" cy="200" r="4" fill="white"/><circle cx="180" cy="200" r="4" fill="white"/><circle cx="200" cy="200" r="4" fill="white"/><circle cx="90" cy="220" r="4" fill="white"/><circle cx="110" cy="220" r="4" fill="white"/><circle cx="130" cy="220" r="4" fill="white"/><circle cx="150" cy="220" r="4" fill="white"/><circle cx="170" cy="220" r="4" fill="white"/><circle cx="190" cy="220" r="4" fill="white"/><circle cx="210" cy="220" r="4" fill="white"/><circle cx="80" cy="240" r="4" fill="white"/><circle cx="100" cy="240" r="4" fill="white"/><circle cx="120" cy="240" r="4" fill="white"/><circle cx="140" cy="240" r="4" fill="white"/><circle cx="160" cy="240" r="4" fill="white"/><circle cx="180" cy="240" r="4" fill="white"/><circle cx="200" cy="240" r="4" fill="white"/><circle cx="220" cy="240" r="4" fill="white"/><circle cx="80" cy="260" r="4" fill="white"/><circle cx="100" cy="260" r="4" fill="white"/><circle cx="120" cy="260" r="4" fill="white"/><circle cx="140" cy="260" r="4" fill="white"/><circle cx="160" cy="260" r="4" fill="white"/><circle cx="180" cy="260" r="4" fill="white"/><circle cx="200" cy="260" r="4" fill="white"/><circle cx="90" cy="280" r="4" fill="white"/><circle cx="110" cy="280" r="4" fill="white"/><circle cx="130" cy="280" r="4" fill="white"/><circle cx="150" cy="280" r="4" fill="white"/><circle cx="170" cy="280" r="4" fill="white"/><circle cx="190" cy="280" r="4" fill="white"/><circle cx="100" cy="300" r="4" fill="white"/><circle cx="120" cy="300" r="4" fill="white"/><circle cx="140" cy="300" r="4" fill="white"/><circle cx="160" cy="300" r="4" fill="white"/><circle cx="110" cy="320" r="4" fill="white"/><circle cx="130" cy="320" r="4" fill="white"/><circle cx="150" cy="320" r="4" fill="white"/><circle cx="120" cy="340" r="4" fill="white"/><circle cx="140" cy="340" r="4" fill="white"/><circle cx="130" cy="360" r="4" fill="white"/><circle cx="120" cy="380" r="4" fill="white"/><circle cx="140" cy="380" r="4" fill="white"/><circle cx="130" cy="400" r="4" fill="white"/><circle cx="140" cy="420" r="4" fill="white"/>
    <!-- Europe/Africa -->
    <circle cx="480" cy="140" r="4" fill="white"/><circle cx="500" cy="140" r="4" fill="white"/><circle cx="520" cy="140" r="4" fill="white"/><circle cx="540" cy="140" r="4" fill="white"/><circle cx="560" cy="140" r="4" fill="white"/><circle cx="580" cy="140" r="4" fill="white"/><circle cx="600" cy="140" r="4" fill="white"/><circle cx="470" cy="160" r="4" fill="white"/><circle cx="490" cy="160" r="4" fill="white"/><circle cx="510" cy="160" r="4" fill="white"/><circle cx="530" cy="160" r="4" fill="white"/><circle cx="550" cy="160" r="4" fill="white"/><circle cx="570" cy="160" r="4" fill="white"/><circle cx="590" cy="160" r="4" fill="white"/><circle cx="610" cy="160" r="4" fill="white"/><circle cx="630" cy="160" r="4" fill="white"/><circle cx="460" cy="180" r="4" fill="white"/><circle cx="480" cy="180" r="4" fill="white"/><circle cx="500" cy="180" r="4" fill="white"/><circle cx="520" cy="180" r="4" fill="white"/><circle cx="540" cy="180" r="4" fill="white"/><circle cx="560" cy="180" r="4" fill="white"/><circle cx="580" cy="180" r="4" fill="white"/><circle cx="600" cy="180" r="4" fill="white"/><circle cx="620" cy="180" r="4" fill="white"/><circle cx="640" cy="180" r="4" fill="white"/><circle cx="660" cy="180" r="4" fill="white"/><circle cx="480" cy="200" r="4" fill="white"/><circle cx="500" cy="200" r="4" fill="white"/><circle cx="520" cy="200" r="4" fill="white"/><circle cx="540" cy="200" r="4" fill="white"/><circle cx="560" cy="200" r="4" fill="white"/><circle cx="580" cy="200" r="4" fill="white"/><circle cx="600" cy="200" r="4" fill="white"/><circle cx="620" cy="200" r="4" fill="white"/><circle cx="640" cy="200" r="4" fill="white"/><circle cx="500" cy="220" r="4" fill="white"/><circle cx="520" cy="220" r="4" fill="white"/><circle cx="540" cy="220" r="4" fill="white"/><circle cx="560" cy="220" r="4" fill="white"/><circle cx="580" cy="220" r="4" fill="white"/><circle cx="600" cy="220" r="4" fill="white"/><circle cx="620" cy="220" r="4" fill="white"/><circle cx="510" cy="240" r="4" fill="white"/><circle cx="530" cy="240" r="4" fill="white"/><circle cx="550" cy="240" r="4" fill="white"/><circle cx="570" cy="240" r="4" fill="white"/><circle cx="590" cy="240" r="4" fill="white"/><circle cx="610" cy="240" r="4" fill="white"/><circle cx="520" cy="260" r="4" fill="white"/><circle cx="540" cy="260" r="4" fill="white"/><circle cx="560" cy="260" r="4" fill="white"/><circle cx="580" cy="260" r="4" fill="white"/><circle cx="530" cy="280" r="4" fill="white"/><circle cx="550" cy="280" r="4" fill="white"/><circle cx="570" cy="280" r="4" fill="white"/><circle cx="540" cy="300" r="4" fill="white"/><circle cx="560" cy="300" r="4" fill="white"/><circle cx="550" cy="320" r="4" fill="white"/>
    <!-- Asia -->
    <circle cx="700" cy="140" r="4" fill="white"/><circle cx="720" cy="140" r="4" fill="white"/><circle cx="740" cy="140" r="4" fill="white"/><circle cx="760" cy="140" r="4" fill="white"/><circle cx="780" cy="140" r="4" fill="white"/><circle cx="800" cy="140" r="4" fill="white"/><circle cx="820" cy="140" r="4" fill="white"/><circle cx="840" cy="140" r="4" fill="white"/><circle cx="860" cy="140" r="4" fill="white"/><circle cx="880" cy="140" r="4" fill="white"/><circle cx="900" cy="140" r="4" fill="white"/><circle cx="920" cy="140" r="4" fill="white"/><circle cx="940" cy="140" r="4" fill="white"/><circle cx="960" cy="140" r="4" fill="white"/><circle cx="980" cy="140" r="4" fill="white"/><circle cx="1000" cy="140" r="4" fill="white"/><circle cx="1020" cy="140" r="4" fill="white"/><circle cx="690" cy="160" r="4" fill="white"/><circle cx="710" cy="160" r="4" fill="white"/><circle cx="730" cy="160" r="4" fill="white"/><circle cx="750" cy="160" r="4" fill="white"/><circle cx="770" cy="160" r="4" fill="white"/><circle cx="790" cy="160" r="4" fill="white"/><circle cx="810" cy="160" r="4" fill="white"/><circle cx="830" cy="160" r="4" fill="white"/><circle cx="850" cy="160" r="4" fill="white"/><circle cx="870" cy="160" r="4" fill="white"/><circle cx="890" cy="160" r="4" fill="white"/><circle cx="910" cy="160" r="4" fill="white"/><circle cx="930" cy="160" r="4" fill="white"/><circle cx="950" cy="160" r="4" fill="white"/><circle cx="970" cy="160" r="4" fill="white"/><circle cx="990" cy="160" r="4" fill="white"/><circle cx="1010" cy="160" r="4" fill="white"/><circle cx="1030" cy="160" r="4" fill="white"/><circle cx="1050" cy="160" r="4" fill="white"/><circle cx="700" cy="180" r="4" fill="white"/><circle cx="720" cy="180" r="4" fill="white"/><circle cx="740" cy="180" r="4" fill="white"/><circle cx="760" cy="180" r="4" fill="white"/><circle cx="780" cy="180" r="4" fill="white"/><circle cx="800" cy="180" r="4" fill="white"/><circle cx="820" cy="180" r="4" fill="white"/><circle cx="840" cy="180" r="4" fill="white"/><circle cx="860" cy="180" r="4" fill="white"/><circle cx="880" cy="180" r="4" fill="white"/><circle cx="900" cy="180" r="4" fill="white"/><circle cx="920" cy="180" r="4" fill="white"/><circle cx="940" cy="180" r="4" fill="white"/><circle cx="960" cy="180" r="4" fill="white"/><circle cx="980" cy="180" r="4" fill="white"/><circle cx="1000" cy="180" r="4" fill="white"/><circle cx="1020" cy="180" r="4" fill="white"/><circle cx="710" cy="200" r="4" fill="white"/><circle cx="730" cy="200" r="4" fill="white"/><circle cx="750" cy="200" r="4" fill="white"/><circle cx="770" cy="200" r="4" fill="white"/><circle cx="790" cy="200" r="4" fill="white"/><circle cx="810" cy="200" r="4" fill="white"/><circle cx="830" cy="200" r="4" fill="white"/><circle cx="850" cy="200" r="4" fill="white"/><circle cx="870" cy="200" r="4" fill="white"/><circle cx="890" cy="200" r="4" fill="white"/><circle cx="910" cy="200" r="4" fill="white"/><circle cx="930" cy="200" r="4" fill="white"/><circle cx="950" cy="200" r="4" fill="white"/><circle cx="970" cy="200" r="4" fill="white"/><circle cx="990" cy="200" r="4" fill="white"/><circle cx="720" cy="220" r="4" fill="white"/><circle cx="740" cy="220" r="4" fill="white"/><circle cx="760" cy="220" r="4" fill="white"/><circle cx="780" cy="220" r="4" fill="white"/><circle cx="800" cy="220" r="4" fill="white"/><circle cx="820" cy="220" r="4" fill="white"/><circle cx="840" cy="220" r="4" fill="white"/><circle cx="860" cy="220" r="4" fill="white"/><circle cx="880" cy="220" r="4" fill="white"/><circle cx="900" cy="220" r="4" fill="white"/><circle cx="920" cy="220" r="4" fill="white"/><circle cx="940" cy="220" r="4" fill="white"/><circle cx="960" cy="220" r="4" fill="white"/><circle cx="730" cy="240" r="4" fill="white"/><circle cx="750" cy="240" r="4" fill="white"/><circle cx="770" cy="240" r="4" fill="white"/><circle cx="790" cy="240" r="4" fill="white"/><circle cx="810" cy="240" r="4" fill="white"/><circle cx="830" cy="240" r="4" fill="white"/><circle cx="850" cy="240" r="4" fill="white"/><circle cx="870" cy="240" r="4" fill="white"/><circle cx="890" cy="240" r="4" fill="white"/><circle cx="910" cy="240" r="4" fill="white"/><circle cx="930" cy="240" r="4" fill="white"/><circle cx="940" cy="260" r="4" fill="white"/><circle cx="960" cy="260" r="4" fill="white"/><circle cx="980" cy="260" r="4" fill="white"/><circle cx="1000" cy="260" r="4" fill="white"/><circle cx="1020" cy="260" r="4" fill="white"/>
  </g>

  <!-- Left accent line -->
  <rect x="80" y="200" width="3" height="60" fill="#22c55e"/>

  <!-- Main text -->
  <text x="100" y="240" font-family="system-ui, -apple-system, sans-serif" font-size="72" font-weight="700" fill="white" letter-spacing="-2">FinRisk Insights</text>
  <text x="103" y="290" font-family="system-ui, -apple-system, sans-serif" font-size="28" font-weight="400" fill="#9ca3af" letter-spacing="1">The Financial Platform of Mauritius</text>

  <!-- Bottom bar -->
  <rect x="0" y="580" width="1200" height="50" fill="#111111"/>
  <text x="80" y="612" font-family="system-ui, -apple-system, sans-serif" font-size="20" font-weight="400" fill="#6b7280">finriskinsight.com</text>
  <text x="1120" y="612" font-family="system-ui, -apple-system, sans-serif" font-size="20" font-weight="600" fill="#22c55e" text-anchor="end">Est. 2026</text>
</svg>